<svg width="51" height="24" viewBox="0 0 51 24" fill="none" xmlns="http://www.w3.org/2000/svg">
<path fill-rule="evenodd" clip-rule="evenodd" d="M0 12V24H25.5H51V12V0H25.5H0V12ZM15.461 4.4113C17.1659 5.23225 18.4856 6.48693 19.3601 8.11893C20.4328 10.1206 20.4 10.2977 18.8951 10.6186C17.091 11.0034 16.9609 10.9734 16.5802 10.0825C15.7744 8.19637 14.1113 7.17526 11.8449 7.17526H10.4888L10.0594 5.87629C9.8231 5.16173 9.58178 4.44693 9.52282 4.28784C9.23971 3.5228 13.813 3.61806 15.461 4.4113ZM7.61044 7.09633L8.62845 8.25847L7.88584 9.4461C6.73996 11.2795 6.93202 13.7275 8.34833 15.3422C8.62621 15.6591 8.51103 15.9014 7.58308 16.9504L6.49043 18.1856L5.86102 17.4433C3.24783 14.3614 3.16747 10.0085 5.66399 6.74227C6.00208 6.29988 6.34913 5.93715 6.4357 5.93617C6.52203 5.93493 7.05069 6.45699 7.61044 7.09633ZM35.5756 10.7758V15.6134L36.3302 15.8749C37.1243 16.1503 37.1486 16.4578 36.4774 17.7241L36.1976 18.2524L35.0853 17.7241C34.4735 17.4336 33.8317 16.9175 33.6585 16.5773C33.4361 16.1401 33.3428 14.4901 33.3403 10.9485L33.3366 5.93814H34.4561H35.5756V10.7758ZM29.9014 8.69097C30.8518 9.16602 31.9155 10.3712 32.1954 11.2899C32.3646 11.8451 32.1775 11.9424 25.0562 14.9936L23.1199 15.8234L22.8577 15.1487C22.0815 13.1525 22.4313 11.2139 23.8548 9.62004C25.3358 7.96206 27.7124 7.59687 29.9014 8.69097ZM44.7464 8.72264C45.4781 9.06186 46.0662 9.59332 46.5501 10.3522C47.4432 11.7526 47.4489 12.0742 46.5841 12.2657C46.208 12.3489 45.7042 12.4699 45.4649 12.5344C45.1751 12.6126 44.9561 12.4602 44.8093 12.0784C44.4526 11.1506 43.6334 10.5892 42.4407 10.4556C41.4705 10.3467 41.2906 10.2327 41.0625 9.58194C40.6662 8.45171 40.7363 8.20652 41.4841 8.10458C42.5051 7.96553 43.5346 8.1605 44.7464 8.72264ZM40.0335 11.7189C39.4504 12.6705 39.432 13.3972 39.9636 14.5113C40.3656 15.3538 40.3616 15.3753 39.6683 16.0951C39.2817 16.4964 38.8792 16.8247 38.7737 16.8247C38.6682 16.8247 38.2973 16.3418 37.9495 15.7514C36.9165 13.9984 37.1153 11.2931 38.3754 9.9553L38.903 9.39513L39.7061 10.1691L40.5092 10.9433L40.0335 11.7189ZM26.2466 10.5343C25.4637 10.9403 25.1119 11.3834 24.8372 12.3093C24.7265 12.6829 24.7773 12.866 24.9917 12.866C25.2768 12.866 28.7961 11.4314 29.1073 11.1885C29.3486 11.0002 28.05 10.1443 27.5248 10.1458C27.2323 10.1468 26.6568 10.3215 26.2466 10.5343ZM19.1004 13.5053C20.0353 13.6533 20.1452 13.7369 20.0102 14.1976C19.1621 17.0895 16.5937 19.4383 13.6274 20.0348C12.198 20.3221 10.0622 20.1726 9.81041 19.7673C9.73627 19.6481 9.87261 18.9291 10.1134 18.1697C10.5446 16.8096 10.5632 16.7911 11.3531 16.9383C13.2956 17.3008 15.7493 15.9615 16.582 14.0845C16.9342 13.2903 17.128 13.1122 17.5306 13.2119C17.809 13.2809 18.5152 13.4128 19.1004 13.5053ZM47.0817 14.0972C47.9497 14.1246 46.0848 16.9032 44.7312 17.5994C43.6995 18.1301 41.3048 18.3974 40.9284 18.024C40.8388 17.9352 40.903 17.4064 41.0709 16.8487C41.3583 15.8954 41.4322 15.8351 42.3131 15.8351C43.3174 15.8351 44.63 14.9646 44.8994 14.1202C45.0238 13.7302 45.1793 13.6948 45.9702 13.8777C46.4789 13.9952 46.9792 14.0939 47.0817 14.0972ZM30.9732 15.4666L31.7195 16.0857L30.7764 16.9232C29.2225 18.3031 27.139 18.5824 25.3149 17.6553L24.632 17.3085L25.1905 16.4427C25.6634 15.7094 25.8438 15.6037 26.3707 15.7519C27.4353 16.0511 28.3714 15.9249 29.0635 15.3885C29.9258 14.7207 30.081 14.7268 30.9732 15.4666Z" fill="#9E9E9E"/>
</svg>
